<svg xmlns="http://www.w3.org/2000/svg" width="800" height="180" fill="none" viewBox="0 0 800 180"><g clip-path="url(#a)" filter="url(#b)"><path fill="#fff" d="M81.807 138.614C90.78 143.592 100.892 146 112.15 146c8.156 0 15.659-1.284 22.673-4.014a46.857 46.857 0 0 0 17.942-11.721l-5.219-5.299c-9.298 8.992-21.042 13.488-35.07 13.488-9.624 0-18.269-2.088-26.098-6.423-7.83-4.175-14.028-10.115-18.432-17.662-4.567-7.546-6.688-16.056-6.688-25.369 0-9.313 2.12-17.662 6.688-25.208 4.404-7.547 10.602-13.488 18.432-17.823 7.83-4.175 16.474-6.422 26.098-6.422 14.191 0 25.935 4.495 35.07 13.326l5.219-5.298c-4.893-5.138-10.928-8.992-17.779-11.56A66.172 66.172 0 0 0 112.149 32c-11.255 0-21.368 2.57-30.34 7.386-8.97 4.977-15.984 11.721-21.204 20.392-5.22 8.67-7.666 18.464-7.666 29.222 0 10.918 2.446 20.552 7.666 29.223 5.22 8.67 12.233 15.574 21.205 20.391h-.003Zm114.536 0c8.971 4.978 19.084 7.386 30.339 7.386 11.092 0 21.205-2.408 30.339-7.386 8.971-4.817 15.985-11.721 21.205-20.391 5.22-8.671 7.829-18.305 7.829-29.223 0-10.758-2.609-20.552-7.829-29.222-5.22-8.67-12.234-15.414-21.205-20.392C247.887 34.569 237.774 32 226.682 32c-11.255 0-21.368 2.57-30.339 7.547-9.135 4.977-16.148 11.72-21.368 20.391-5.22 8.67-7.666 18.465-7.666 29.062 0 10.758 2.446 20.392 7.666 29.062 5.22 8.67 12.233 15.575 21.368 20.552Zm56.274-6.583c-7.829 4.335-16.474 6.423-25.935 6.423-9.624 0-18.269-2.088-26.098-6.423-7.83-4.175-13.865-10.115-18.269-17.662-4.567-7.546-6.688-16.056-6.688-25.369 0-9.313 2.121-17.662 6.688-25.208 4.404-7.547 10.439-13.488 18.269-17.823 7.829-4.175 16.474-6.422 26.098-6.422 9.461 0 18.106 2.248 25.935 6.422 7.666 4.335 13.702 10.276 18.269 17.823 4.404 7.546 6.688 15.895 6.688 25.208 0 9.313-2.284 17.823-6.688 25.369-4.567 7.547-10.603 13.487-18.269 17.662Zm160.486-71.932c-5.22-8.51-12.397-15.093-21.531-20.07-9.135-4.818-19.737-7.226-31.481-7.226h-45.183v7.386h44.53c10.44 0 19.737 2.087 27.893 6.262 7.993 4.175 14.191 9.955 18.595 17.18 4.241 7.386 6.525 15.896 6.525 25.37 0 9.633-2.284 17.982-6.525 25.368-4.404 7.386-10.602 13.166-18.595 17.341-8.156 4.175-17.453 6.101-27.893 6.101h-36.211v-48.81h-8.319v56.196h45.183c11.744 0 22.346-2.408 31.481-7.225 9.134-4.817 16.311-11.4 21.531-19.91 5.056-8.51 7.666-18.144 7.666-29.062 0-10.758-2.61-20.391-7.666-28.901Zm110.455 24.405h-73.89v7.226h73.89v-7.226Zm0-51.701h-73.89v7.386h73.89v-7.386Zm-73.89 105.008v7.386h73.89v-7.386h-73.89ZM558.942 32.803v7.386h73.075v-7.386h-73.075Zm0 112.394h8.319V95.583h64.756v-7.386h-73.075v57Zm138.135-38.696 45.998-73.698h-8.647L693.16 98.955l-41.265-66.152h-9.135l45.998 73.698v38.696h8.319v-38.696Z"/></g><defs><clipPath id="a"><path fill="#fff" d="M0 0h800v180H0z"/></clipPath><filter id="b" width="704.137" height="128" x="45.9386" y="25" color-interpolation-filters="sRGB" filterUnits="userSpaceOnUse"><feFlood flood-opacity="0" result="BackgroundImageFix"/><feColorMatrix in="SourceAlpha" result="hardAlpha" values="0 0 0 0 0 0 0 0 0 0 0 0 0 0 0 0 0 0 127 0"/><feOffset/><feGaussianBlur stdDeviation="3.5"/><feComposite in2="hardAlpha" operator="out"/><feColorMatrix values="0 0 0 0 1 0 0 0 0 1 0 0 0 0 1 0 0 0 1 0"/><feBlend in2="BackgroundImageFix" result="effect1_dropShadow_9_15"/><feBlend in="SourceGraphic" in2="effect1_dropShadow_9_15" result="shape"/></filter></defs></svg>